<svg xmlns="http://www.w3.org/2000/svg" viewBox="0 0 16 16" width="16" height="16">
  <!-- Symbolic icon: single-color, GTK/GNOME auto-recolors to match theme foreground.
       Solid fill paths only; no currentColor, no CSS variables. -->
  <g fill="#bebebe">
    <path d="M7.25 1 a.75.75 0 1 1 1.5 0 a.75.75 0 1 1 -1.5 0 z"/>
    <rect x="7.6" y="1.6" width="0.8" height="2.2"/>
    <path d="M3 4.5 h10 a1.5 1.5 0 0 1 1.5 1.5 v6 a1.5 1.5 0 0 1 -1.5 1.5 h-10 a1.5 1.5 0 0 1 -1.5 -1.5 v-6 a1.5 1.5 0 0 1 1.5 -1.5 z M3.2 5.5 a.5 .5 0 0 0 -.5 .5 v6 a.5 .5 0 0 0 .5 .5 h9.6 a.5 .5 0 0 0 .5 -.5 v-6 a.5 .5 0 0 0 -.5 -.5 z"/>
    <circle cx="6" cy="8.5" r="1.1"/>
    <circle cx="10" cy="8.5" r="1.1"/>
    <rect x="5.6" y="11" width="4.8" height="0.8" rx="0.4"/>
    <rect x="0.6" y="8.2" width="1.4" height="0.8" rx="0.2"/>
    <rect x="14" y="8.2" width="1.4" height="0.8" rx="0.2"/>
  </g>
</svg>
